<svg xmlns="http://www.w3.org/2000/svg" viewBox="0 0 760 335">
  <title>Context değeri değişince tüketicilere yayılır</title>
  <defs>
    <marker id="ok-context" viewBox="0 0 10 10" refX="9" refY="5" markerWidth="7" markerHeight="7" orient="auto-start-reverse">
      <path class="d-arrowhead-accent" d="M0 0 L10 5 L0 10 z"/>
    </marker>
  </defs>

  <rect class="d-accent" x="280" y="35" width="200" height="66" rx="8"/>
  <text class="d-title" x="380" y="62" text-anchor="middle">Provider</text>
  <text class="d-code" x="380" y="84" text-anchor="middle">value değişti</text>

  <rect class="d-lane" x="45" y="130" width="670" height="155" rx="10"/>
  <text class="d-muted" x="450" y="154" text-anchor="middle">alt ağaç</text>

  <rect class="d-success" x="80" y="190" width="150" height="60" rx="8"/>
  <text class="d-title" x="155" y="214" text-anchor="middle">Tüketici A</text>
  <text class="d-text" x="155" y="236" text-anchor="middle">render olur</text>

  <rect class="d-box" x="305" y="190" width="150" height="60" rx="8"/>
  <text class="d-title" x="380" y="214" text-anchor="middle">Ara bileşen</text>
  <text class="d-muted" x="380" y="236" text-anchor="middle">okumaz</text>

  <rect class="d-success" x="530" y="190" width="150" height="60" rx="8"/>
  <text class="d-title" x="605" y="214" text-anchor="middle">Tüketici B</text>
  <text class="d-text" x="605" y="236" text-anchor="middle">render olur</text>

  <path class="d-line-accent" d="M350 101 C275 140 200 160 155 186" marker-end="url(#ok-context)"/>
  <path class="d-line-accent" d="M410 101 C485 140 560 160 605 186" marker-end="url(#ok-context)"/>
  <line class="d-line d-dashed" x1="380" y1="101" x2="380" y2="186"/>

  <text class="d-text" x="380" y="316" text-anchor="middle">Context veri taşır; cache ya da kalıcılık sağlamaz.</text>
</svg>
